<svg width="617" height="62" viewBox="0 0 617 62" fill="none" xmlns="http://www.w3.org/2000/svg">
<path d="M0.0454545 0.454544H12.1818L25 31.7273H25.5455L38.3636 0.454544H50.5V47H40.9545V16.7045H40.5682L28.5227 46.7727H22.0227L9.97727 16.5909H9.59091V47H0.0454545V0.454544ZM68.3807 47.6591C66.1534 47.6591 64.1686 47.2727 62.4261 46.5C60.6837 45.7121 59.3049 44.553 58.2898 43.0227C57.2898 41.4773 56.7898 39.553 56.7898 37.25C56.7898 35.3106 57.1458 33.6818 57.858 32.3636C58.5701 31.0455 59.5398 29.9848 60.767 29.1818C61.9943 28.3788 63.3883 27.7727 64.9489 27.3636C66.5246 26.9545 68.1761 26.6667 69.9034 26.5C71.9337 26.2879 73.5701 26.0909 74.8125 25.9091C76.0549 25.7121 76.9564 25.4242 77.517 25.0455C78.0777 24.6667 78.358 24.1061 78.358 23.3636V23.2273C78.358 21.7879 77.9034 20.6742 76.9943 19.8864C76.1004 19.0985 74.8277 18.7045 73.1761 18.7045C71.4337 18.7045 70.0473 19.0909 69.017 19.8636C67.9867 20.6212 67.3049 21.5758 66.9716 22.7273L58.017 22C58.4716 19.8788 59.3655 18.0455 60.6989 16.5C62.0322 14.9394 63.7519 13.7424 65.858 12.9091C67.9792 12.0606 70.4337 11.6364 73.2216 11.6364C75.161 11.6364 77.017 11.8636 78.7898 12.3182C80.5777 12.7727 82.161 13.4773 83.5398 14.4318C84.9337 15.3864 86.0322 16.6136 86.8352 18.1136C87.6383 19.5985 88.0398 21.3788 88.0398 23.4545V47H78.858V42.1591H78.5852C78.0246 43.25 77.2746 44.2121 76.3352 45.0455C75.3958 45.8636 74.267 46.5076 72.9489 46.9773C71.6307 47.4318 70.108 47.6591 68.3807 47.6591ZM71.1534 40.9773C72.5777 40.9773 73.8352 40.697 74.9261 40.1364C76.017 39.5606 76.8731 38.7879 77.4943 37.8182C78.1155 36.8485 78.4261 35.75 78.4261 34.5227V30.8182C78.1231 31.0152 77.7064 31.197 77.1761 31.3636C76.661 31.5152 76.0777 31.6591 75.4261 31.7955C74.7746 31.9167 74.1231 32.0303 73.4716 32.1364C72.8201 32.2273 72.2292 32.3106 71.6989 32.3864C70.5625 32.553 69.5701 32.8182 68.7216 33.1818C67.8731 33.5455 67.214 34.0379 66.7443 34.6591C66.2746 35.2652 66.0398 36.0227 66.0398 36.9318C66.0398 38.25 66.517 39.2576 67.4716 39.9545C68.4413 40.6364 69.6686 40.9773 71.1534 40.9773ZM114.119 12.0909V19.3636H93.0966V12.0909H114.119ZM97.8693 3.72727H107.551V36.2727C107.551 37.1667 107.688 37.8636 107.96 38.3636C108.233 38.8485 108.612 39.1894 109.097 39.3864C109.597 39.5833 110.172 39.6818 110.824 39.6818C111.278 39.6818 111.733 39.6439 112.188 39.5682C112.642 39.4773 112.991 39.4091 113.233 39.3636L114.756 46.5682C114.271 46.7197 113.589 46.8939 112.71 47.0909C111.831 47.303 110.763 47.4318 109.506 47.4773C107.172 47.5682 105.127 47.2576 103.369 46.5455C101.627 45.8333 100.271 44.7273 99.3011 43.2273C98.3314 41.7273 97.8542 39.8333 97.8693 37.5455V3.72727ZM130.858 26.8182V47H121.176V0.454544H130.585V18.25H130.994C131.782 16.1894 133.055 14.5758 134.812 13.4091C136.57 12.2273 138.775 11.6364 141.426 11.6364C143.85 11.6364 145.964 12.1667 147.767 13.2273C149.585 14.2727 150.994 15.7803 151.994 17.75C153.009 19.7045 153.509 22.0455 153.494 24.7727V47H143.812V26.5C143.828 24.3485 143.282 22.6742 142.176 21.4773C141.085 20.2803 139.555 19.6818 137.585 19.6818C136.267 19.6818 135.1 19.9621 134.085 20.5227C133.085 21.0833 132.297 21.9015 131.722 22.9773C131.161 24.0379 130.873 25.3182 130.858 26.8182ZM177.023 47.6818C173.432 47.6818 170.341 46.9545 167.75 45.5C165.174 44.0303 163.189 41.9545 161.795 39.2727C160.402 36.5758 159.705 33.3864 159.705 29.7045C159.705 26.1136 160.402 22.9621 161.795 20.25C163.189 17.5379 165.152 15.4242 167.682 13.9091C170.227 12.3939 173.212 11.6364 176.636 11.6364C178.939 11.6364 181.083 12.0076 183.068 12.75C185.068 13.4773 186.811 14.5758 188.295 16.0455C189.795 17.5152 190.962 19.3636 191.795 21.5909C192.629 23.803 193.045 26.3939 193.045 29.3636V32.0227H163.568V26.0227H183.932C183.932 24.6288 183.629 23.3939 183.023 22.3182C182.417 21.2424 181.576 20.4015 180.5 19.7955C179.439 19.1742 178.205 18.8636 176.795 18.8636C175.326 18.8636 174.023 19.2045 172.886 19.8864C171.765 20.553 170.886 21.4545 170.25 22.5909C169.614 23.7121 169.288 24.9621 169.273 26.3409V32.0455C169.273 33.7727 169.591 35.2652 170.227 36.5227C170.879 37.7803 171.795 38.75 172.977 39.4318C174.159 40.1136 175.561 40.4545 177.182 40.4545C178.258 40.4545 179.242 40.303 180.136 40C181.03 39.697 181.795 39.2424 182.432 38.6364C183.068 38.0303 183.553 37.2879 183.886 36.4091L192.841 37C192.386 39.1515 191.455 41.0303 190.045 42.6364C188.652 44.2273 186.848 45.4697 184.636 46.3636C182.439 47.2424 179.902 47.6818 177.023 47.6818ZM221.75 32.1364V12.0909H231.432V47H222.136V40.6591H221.773C220.985 42.7045 219.674 44.3485 217.841 45.5909C216.023 46.8333 213.803 47.4545 211.182 47.4545C208.848 47.4545 206.795 46.9242 205.023 45.8636C203.25 44.803 201.864 43.2955 200.864 41.3409C199.879 39.3864 199.379 37.0455 199.364 34.3182V12.0909H209.045V32.5909C209.061 34.6515 209.614 36.2803 210.705 37.4773C211.795 38.6742 213.258 39.2727 215.091 39.2727C216.258 39.2727 217.348 39.0076 218.364 38.4773C219.379 37.9318 220.197 37.1288 220.818 36.0682C221.455 35.0076 221.765 33.697 221.75 32.1364ZM268.222 22.0455L259.358 22.5909C259.206 21.8333 258.881 21.1515 258.381 20.5455C257.881 19.9242 257.222 19.4318 256.403 19.0682C255.6 18.6894 254.638 18.5 253.517 18.5C252.017 18.5 250.752 18.8182 249.722 19.4545C248.691 20.0758 248.176 20.9091 248.176 21.9545C248.176 22.7879 248.509 23.4924 249.176 24.0682C249.843 24.6439 250.987 25.1061 252.608 25.4545L258.926 26.7273C262.32 27.4242 264.85 28.5455 266.517 30.0909C268.184 31.6364 269.017 33.6667 269.017 36.1818C269.017 38.4697 268.343 40.4773 266.994 42.2045C265.661 43.9318 263.828 45.2803 261.494 46.25C259.176 47.2045 256.502 47.6818 253.472 47.6818C248.85 47.6818 245.169 46.7197 242.426 44.7955C239.699 42.8561 238.1 40.2197 237.631 36.8864L247.153 36.3864C247.441 37.7955 248.138 38.8712 249.244 39.6136C250.35 40.3409 251.767 40.7045 253.494 40.7045C255.191 40.7045 256.555 40.3788 257.585 39.7273C258.631 39.0606 259.161 38.2045 259.176 37.1591C259.161 36.2803 258.79 35.5606 258.062 35C257.335 34.4242 256.214 33.9848 254.699 33.6818L248.653 32.4773C245.244 31.7955 242.706 30.6136 241.04 28.9318C239.388 27.25 238.562 25.1061 238.562 22.5C238.562 20.2576 239.169 18.3258 240.381 16.7045C241.608 15.0833 243.328 13.8333 245.54 12.9545C247.767 12.0758 250.373 11.6364 253.358 11.6364C257.767 11.6364 261.237 12.5682 263.767 14.4318C266.313 16.2955 267.797 18.8333 268.222 22.0455ZM275.295 47V0.454544H306.114V8.56818H285.136V19.6591H304.068V27.7727H285.136V47H275.295ZM311.989 47V12.0909H321.375V18.1818H321.739C322.375 16.0152 323.443 14.3788 324.943 13.2727C326.443 12.1515 328.17 11.5909 330.125 11.5909C330.61 11.5909 331.133 11.6212 331.693 11.6818C332.254 11.7424 332.746 11.8258 333.17 11.9318V20.5227C332.716 20.3864 332.087 20.2652 331.284 20.1591C330.481 20.053 329.746 20 329.08 20C327.655 20 326.383 20.3106 325.261 20.9318C324.155 21.5379 323.277 22.3864 322.625 23.4773C321.989 24.5682 321.67 25.8258 321.67 27.25V47H311.989ZM347.131 47.6591C344.903 47.6591 342.919 47.2727 341.176 46.5C339.434 45.7121 338.055 44.553 337.04 43.0227C336.04 41.4773 335.54 39.553 335.54 37.25C335.54 35.3106 335.896 33.6818 336.608 32.3636C337.32 31.0455 338.29 29.9848 339.517 29.1818C340.744 28.3788 342.138 27.7727 343.699 27.3636C345.275 26.9545 346.926 26.6667 348.653 26.5C350.684 26.2879 352.32 26.0909 353.562 25.9091C354.805 25.7121 355.706 25.4242 356.267 25.0455C356.828 24.6667 357.108 24.1061 357.108 23.3636V23.2273C357.108 21.7879 356.653 20.6742 355.744 19.8864C354.85 19.0985 353.578 18.7045 351.926 18.7045C350.184 18.7045 348.797 19.0909 347.767 19.8636C346.737 20.6212 346.055 21.5758 345.722 22.7273L336.767 22C337.222 19.8788 338.116 18.0455 339.449 16.5C340.782 14.9394 342.502 13.7424 344.608 12.9091C346.729 12.0606 349.184 11.6364 351.972 11.6364C353.911 11.6364 355.767 11.8636 357.54 12.3182C359.328 12.7727 360.911 13.4773 362.29 14.4318C363.684 15.3864 364.782 16.6136 365.585 18.1136C366.388 19.5985 366.79 21.3788 366.79 23.4545V47H357.608V42.1591H357.335C356.775 43.25 356.025 44.2121 355.085 45.0455C354.146 45.8636 353.017 46.5076 351.699 46.9773C350.381 47.4318 348.858 47.6591 347.131 47.6591ZM349.903 40.9773C351.328 40.9773 352.585 40.697 353.676 40.1364C354.767 39.5606 355.623 38.7879 356.244 37.8182C356.866 36.8485 357.176 35.75 357.176 34.5227V30.8182C356.873 31.0152 356.456 31.197 355.926 31.3636C355.411 31.5152 354.828 31.6591 354.176 31.7955C353.525 31.9167 352.873 32.0303 352.222 32.1364C351.57 32.2273 350.979 32.3106 350.449 32.3864C349.313 32.553 348.32 32.8182 347.472 33.1818C346.623 33.5455 345.964 34.0379 345.494 34.6591C345.025 35.2652 344.79 36.0227 344.79 36.9318C344.79 38.25 345.267 39.2576 346.222 39.9545C347.191 40.6364 348.419 40.9773 349.903 40.9773ZM383.983 26.8182V47H374.301V12.0909H383.528V18.25H383.938C384.71 16.2197 386.006 14.6136 387.824 13.4318C389.642 12.2348 391.847 11.6364 394.438 11.6364C396.862 11.6364 398.975 12.1667 400.778 13.2273C402.581 14.2879 403.983 15.803 404.983 17.7727C405.983 19.7273 406.483 22.0606 406.483 24.7727V47H396.801V26.5C396.816 24.3636 396.271 22.697 395.165 21.5C394.059 20.2879 392.536 19.6818 390.597 19.6818C389.294 19.6818 388.142 19.9621 387.142 20.5227C386.157 21.0833 385.384 21.9015 384.824 22.9773C384.278 24.0379 383.998 25.3182 383.983 26.8182ZM429.886 47.6818C426.311 47.6818 423.235 46.9242 420.659 45.4091C418.098 43.8788 416.129 41.7576 414.75 39.0455C413.386 36.3333 412.705 33.2121 412.705 29.6818C412.705 26.1061 413.394 22.9697 414.773 20.2727C416.167 17.5606 418.144 15.447 420.705 13.9318C423.265 12.4015 426.311 11.6364 429.841 11.6364C432.886 11.6364 435.553 12.1894 437.841 13.2955C440.129 14.4015 441.939 15.9545 443.273 17.9545C444.606 19.9545 445.341 22.303 445.477 25H436.341C436.083 23.2576 435.402 21.8561 434.295 20.7955C433.205 19.7197 431.773 19.1818 430 19.1818C428.5 19.1818 427.189 19.5909 426.068 20.4091C424.962 21.2121 424.098 22.3864 423.477 23.9318C422.856 25.4773 422.545 27.3485 422.545 29.5455C422.545 31.7727 422.848 33.6667 423.455 35.2273C424.076 36.7879 424.947 37.9773 426.068 38.7955C427.189 39.6136 428.5 40.0227 430 40.0227C431.106 40.0227 432.098 39.7955 432.977 39.3409C433.871 38.8864 434.606 38.2273 435.182 37.3636C435.773 36.4848 436.159 35.4318 436.341 34.2045H445.477C445.326 36.8712 444.598 39.2197 443.295 41.25C442.008 43.2652 440.227 44.8409 437.955 45.9773C435.682 47.1136 432.992 47.6818 429.886 47.6818ZM427.614 46.8182H432.068L431.705 48.7955C433.265 49.0379 434.538 49.6212 435.523 50.5455C436.523 51.4697 437.03 52.7273 437.045 54.3182C437.061 56.5758 436.015 58.3712 433.909 59.7045C431.803 61.053 428.848 61.7273 425.045 61.7273L424.955 57.4091C426.864 57.4091 428.356 57.1742 429.432 56.7045C430.523 56.25 431.091 55.5379 431.136 54.5682C431.167 53.6439 430.811 52.9394 430.068 52.4545C429.326 51.9697 428.167 51.6288 426.591 51.4318L427.614 46.8182ZM461.631 47.6591C459.403 47.6591 457.419 47.2727 455.676 46.5C453.934 45.7121 452.555 44.553 451.54 43.0227C450.54 41.4773 450.04 39.553 450.04 37.25C450.04 35.3106 450.396 33.6818 451.108 32.3636C451.82 31.0455 452.79 29.9848 454.017 29.1818C455.244 28.3788 456.638 27.7727 458.199 27.3636C459.775 26.9545 461.426 26.6667 463.153 26.5C465.184 26.2879 466.82 26.0909 468.062 25.9091C469.305 25.7121 470.206 25.4242 470.767 25.0455C471.328 24.6667 471.608 24.1061 471.608 23.3636V23.2273C471.608 21.7879 471.153 20.6742 470.244 19.8864C469.35 19.0985 468.078 18.7045 466.426 18.7045C464.684 18.7045 463.297 19.0909 462.267 19.8636C461.237 20.6212 460.555 21.5758 460.222 22.7273L451.267 22C451.722 19.8788 452.616 18.0455 453.949 16.5C455.282 14.9394 457.002 13.7424 459.108 12.9091C461.229 12.0606 463.684 11.6364 466.472 11.6364C468.411 11.6364 470.267 11.8636 472.04 12.3182C473.828 12.7727 475.411 13.4773 476.79 14.4318C478.184 15.3864 479.282 16.6136 480.085 18.1136C480.888 19.5985 481.29 21.3788 481.29 23.4545V47H472.108V42.1591H471.835C471.275 43.25 470.525 44.2121 469.585 45.0455C468.646 45.8636 467.517 46.5076 466.199 46.9773C464.881 47.4318 463.358 47.6591 461.631 47.6591ZM464.403 40.9773C465.828 40.9773 467.085 40.697 468.176 40.1364C469.267 39.5606 470.123 38.7879 470.744 37.8182C471.366 36.8485 471.676 35.75 471.676 34.5227V30.8182C471.373 31.0152 470.956 31.197 470.426 31.3636C469.911 31.5152 469.328 31.6591 468.676 31.7955C468.025 31.9167 467.373 32.0303 466.722 32.1364C466.07 32.2273 465.479 32.3106 464.949 32.3864C463.813 32.553 462.82 32.8182 461.972 33.1818C461.123 33.5455 460.464 34.0379 459.994 34.6591C459.525 35.2652 459.29 36.0227 459.29 36.9318C459.29 38.25 459.767 39.2576 460.722 39.9545C461.691 40.6364 462.919 40.9773 464.403 40.9773ZM505.483 47H488.983V0.454544H505.619C510.301 0.454544 514.331 1.38636 517.71 3.25C521.089 5.09848 523.688 7.75757 525.506 11.2273C527.339 14.697 528.256 18.8485 528.256 23.6818C528.256 28.5303 527.339 32.697 525.506 36.1818C523.688 39.6667 521.074 42.3409 517.665 44.2045C514.271 46.0682 510.21 47 505.483 47ZM498.824 38.5682H505.074C507.983 38.5682 510.43 38.053 512.415 37.0227C514.415 35.9773 515.915 34.3636 516.915 32.1818C517.93 29.9848 518.438 27.1515 518.438 23.6818C518.438 20.2424 517.93 17.4318 516.915 15.25C515.915 13.0682 514.422 11.4621 512.438 10.4318C510.453 9.40151 508.006 8.88636 505.097 8.88636H498.824V38.5682ZM535.545 47V0.454544H566.909V8.56818H545.386V19.6591H565.295V27.7727H545.386V38.8864H567V47H535.545ZM583.142 0.454544L594.392 35.8182H594.824L606.097 0.454544H617.006L600.96 47H588.278L572.21 0.454544H583.142Z" fill="white"/>
</svg>
